<svg xmlns="http://www.w3.org/2000/svg" viewBox="0 0 200 250" font-family="'Helvetica Neue',Helvetica,Arial,sans-serif" font-weight="900" text-anchor="middle">
<defs>
<radialGradient id="gRed" cx="50%" cy="55%" r="70%"><stop offset="0" stop-color="oklch(0.66 0.2 28)"/><stop offset="1" stop-color="oklch(0.5 0.19 25)"/></radialGradient>
<radialGradient id="gGreen" cx="50%" cy="40%" r="80%"><stop offset="0" stop-color="oklch(0.62 0.13 140)"/><stop offset="1" stop-color="oklch(0.38 0.09 150)"/></radialGradient>
<radialGradient id="gBlue" cx="50%" cy="45%" r="80%"><stop offset="0" stop-color="oklch(0.66 0.12 220)"/><stop offset="1" stop-color="oklch(0.42 0.11 245)"/></radialGradient>
<radialGradient id="gDark" cx="50%" cy="45%" r="75%"><stop offset="0" stop-color="oklch(0.38 0.015 260)"/><stop offset="1" stop-color="oklch(0.2 0.012 260)"/></radialGradient>
<linearGradient id="gDie" x1="0" y1="0" x2="1" y2="1"><stop offset="0" stop-color="oklch(0.99 0.015 85)"/><stop offset="1" stop-color="oklch(0.86 0.04 80)"/></linearGradient>
<linearGradient id="gChip" x1="0" y1="0" x2="0" y2="1"><stop offset="0" stop-color="oklch(0.62 0.21 27)"/><stop offset="1" stop-color="oklch(0.46 0.18 25)"/></linearGradient>
<linearGradient id="gCell" x1="0" y1="0" x2="0" y2="1"><stop offset="0" stop-color="oklch(0.88 0.06 215)"/><stop offset="1" stop-color="oklch(0.7 0.1 225)"/></linearGradient>
</defs>
<rect width="200" height="250" fill="url(#gRed)"/>
<g fill="oklch(0.7 0.19 30)" opacity=".45"><path d="M100 150 L-20 60 L-20 110Z"/><path d="M100 150 L-20 190 L-20 240Z"/><path d="M100 150 L220 60 L220 110Z"/><path d="M100 150 L220 190 L220 240Z"/><path d="M100 150 L60 -20 L110 -20Z"/><path d="M100 150 L60 270 L110 270Z"/></g>
<g transform="rotate(-16 62 150)"><rect x="18" y="104" width="86" height="86" rx="20" fill="oklch(0.45 0.12 25)" transform="translate(4 7)"/><rect x="18" y="104" width="86" height="86" rx="20" fill="url(#gDie)"/><g fill="oklch(0.32 0.14 300)"><circle cx="38" cy="124" r="7"/><circle cx="38" cy="147" r="7"/><circle cx="38" cy="170" r="7"/><circle cx="84" cy="124" r="7"/><circle cx="84" cy="147" r="7"/><circle cx="84" cy="170" r="7"/></g></g>
<g transform="rotate(14 142 178)"><rect x="98" y="136" width="88" height="88" rx="20" fill="oklch(0.45 0.12 25)" transform="translate(4 7)"/><rect x="98" y="136" width="88" height="88" rx="20" fill="url(#gDie)"/><circle cx="142" cy="180" r="9" fill="oklch(0.32 0.14 300)"/></g>
<text x="100" y="78" font-size="50" fill="oklch(0.99 0.015 85)" stroke="oklch(0.38 0.14 25)" stroke-width="9" paint-order="stroke" stroke-linejoin="round" transform="rotate(-4 100 60)">ЯТЗИ</text>
</svg>
